<svg width="36" height="29" viewBox="0 0 36 29" fill="none" xmlns="http://www.w3.org/2000/svg">
<path d="M35.1852 0.499839L32.6719 0.499839C32.3419 0.499839 32.0151 0.56129 31.7101 0.680629C31.4053 0.79997 31.1283 0.974883 30.8947 1.19539C30.6614 1.41609 30.4763 1.67792 30.35 1.96594C30.2237 2.25413 30.1587 2.56299 30.1587 2.87488L30.1587 12.3756C30.1587 15.5251 28.8348 18.5455 26.4782 20.7726C24.1215 22.9996 20.9254 24.2508 17.5926 24.2508C15.9424 24.2508 14.3083 23.9436 12.7837 23.3469C11.2591 22.7501 9.87385 21.8753 8.70696 20.7726C7.54009 19.6699 6.61449 18.3608 5.983 16.92C5.3515 15.4793 5.02649 13.9351 5.02651 12.3756L5.02651 2.87559C5.0266 2.56371 4.96167 2.25467 4.83542 1.96647C4.70916 1.67828 4.52405 1.41626 4.29067 1.19575C4.05726 0.975061 3.78017 0.800148 3.4752 0.68063C3.17024 0.561291 2.84337 0.49984 2.51325 0.49984L-1.60207e-06 0.49984L-9.34534e-07 12.3751C-8.11942e-07 14.5583 0.455047 16.7201 1.33916 18.7372C2.22327 20.7542 3.51914 22.587 5.15276 24.1307C6.78639 25.6745 8.72579 26.8991 10.8602 27.7346C12.9946 28.57 15.2823 29 17.5926 29C22.2584 29 26.7332 27.2485 30.0324 24.1307C33.3316 21.0129 35.1852 16.7843 35.1852 12.3751L35.1852 0.499839Z" fill="url(#paint0_linear_60_377)"/>
<defs>
<linearGradient id="paint0_linear_60_377" x1="17.5926" y1="24.6965" x2="17.5926" y2="-11.8693" gradientUnits="userSpaceOnUse">
<stop stop-color="#F54A48"/>
<stop offset="1" stop-color="#FA982F"/>
</linearGradient>
</defs>
</svg>
